<svg xmlns="http://www.w3.org/2000/svg" width="320" height="320" viewBox="0 0 320 320">
      <defs>
  <linearGradient id="gold" x1="0" y1="0" x2="0" y2="1">
    <stop offset="0" stop-color="#FFE08A"/><stop offset=".5" stop-color="#FFD24D"/>
    <stop offset="1" stop-color="#F5B30B"/></linearGradient>
  <linearGradient id="goldD" x1="0" y1="0" x2="1" y2="1">
    <stop offset="0" stop-color="#FFD24D"/><stop offset="1" stop-color="#C98A06"/></linearGradient></defs>
      <rect width="320" height="320" fill="#0D255C"/>
      
    <circle cx="160" cy="160" r="120" fill="#1A3C86" stroke="url(#gold)" stroke-width="5"/>
    <circle cx="160" cy="160" r="104" fill="none" stroke="#FFD24D" stroke-width="1.5" opacity=".55"/>
    <g><path d="M118,118 L118,100.52 L132.0,74.76 L146.0,95.0 L160.0,72 L174.0,95.0 L188.0,74.76 L202.0,100.52 L202,118 Z" fill="url(#gold)"/><circle cx="132.0" cy="74.76" r="3.91" fill="url(#gold)"/><circle cx="160.0" cy="72" r="3.91" fill="url(#gold)"/><circle cx="188.0" cy="74.76" r="3.91" fill="url(#gold)"/></g>
    <g fill="none" stroke="url(#gold)" stroke-width="13"
       stroke-linecap="butt" stroke-linejoin="miter">
      <path d="M108,135 L128.0,193 L148,135"/>
      <path d="M150,135 L150,177.04 Q150,193 165.96,193 L172.04,193 Q188,193 188,177.04 L188,135"/>
      <path d="M192,193 L212.0,135 L232,193 M199.2,170.96 L224.8,170.96"/>
    </g>
    <text x="160" y="232" text-anchor="middle" fill="#FFD24D"
      font-family="DejaVu Sans" font-weight="bold" font-size="15"
      letter-spacing="3">BAO BÌ CÔNG NGHIỆP</text>
    </svg>