<svg xmlns="http://www.w3.org/2000/svg" width="300" height="300" viewBox="0 0 300 300"><defs><linearGradient id="gold" x1="0" y1="0" x2="0" y2="1">
<stop offset="0" stop-color="#FFE08A"/><stop offset=".55" stop-color="#FFD24D"/>
<stop offset="1" stop-color="#F5B30B"/></linearGradient>
<linearGradient id="goldS" x1="0" y1="0" x2="1" y2="1">
<stop offset="0" stop-color="#FFD24D"/><stop offset="1" stop-color="#C98A06"/></linearGradient></defs><rect width="300" height="300" fill="#fff"/><g transform="translate(150,150)"><path d="M0,0 L62,31.0 L0,62 L-62,31.0 Z" fill="#FFE08A"/><path d="M62,31.0 L0,62 L0,108 L62,77.0 Z" fill="#F5B30B"/><path d="M-62,31.0 L0,62 L0,108 L-62,77.0 Z" fill="#C98A06"/><path d="M0,0 L0,62" stroke="#9A6A04" stroke-width="2.5" opacity=".5"/><path d="M0,62 L0,108" stroke="#FFE08A" stroke-width="9" opacity=".45"/></g><g transform="translate(150,112)"><path d="M-48,58 L-41.28,29.0 L-32.0,5.800000000000001 L-16.0,26.68 L0.0,0 L16.0,26.68 L32.0,5.800000000000001 L41.28,29.0 L48,58 Z" fill="url(#gold)"/><rect x="-48" y="56.84" width="96" height="9.28" rx="2.9000000000000004" fill="url(#gold)"/><circle cx="-32.0" cy="5.800000000000001" r="5.22" fill="url(#gold)"/><circle cx="0.0" cy="0" r="5.22" fill="url(#gold)"/><circle cx="32.0" cy="5.800000000000001" r="5.22" fill="url(#gold)"/><circle cx="-21.119999999999997" cy="60.61" r="2.9000000000000004" fill="#0D255C"/><circle cx="0.0" cy="60.61" r="2.9000000000000004" fill="#0D255C"/><circle cx="21.120000000000005" cy="60.61" r="2.9000000000000004" fill="#0D255C"/></g></svg>